<svg id="Layer_1" xmlns="http://www.w3.org/2000/svg" viewBox="0 -2 56 81"><style>.st0{opacity:.54}</style><g class="st0"><path d="M-.5 78.5c0 .1.2.2.2.1l-.2-.3v.2zM.6 78.4c0-.2-.1-.5-.3-.7.1.3 0 .3.1.6-.1.1-.2.1-.3 0 0 .1-.2.1-.1.3.3.1.5-.1.5-.4 0 0 .1.1.1.2zM9.9 70.1zM15.4 64.7v.1c.1 0 .1-.1 0-.1zM16.6 64zM9.9 70.1l.2-.1c0-.1-.1 0-.2.1zM1.3 76.6v0zM7.7 72.7v.2-.2zM5.8 74.5c.1 0-.1-.2-.2-.4.1.1.1.2 0 .2l.2.2zM2.5 77c0 .1 0 .1 0 0zM9.1 71.4s0 .1 0 0zM46.7 9.7zM49.1 7.4v.1h.2zM18.5 62.5zM32.1 44.7c-.4.1 0-.5-.5-.4.1.1.2.6.5.4zM1.4 76.6s0-.1 0 0c0-.1 0 0 0 0zM31.6 44.4zM22.1 58.1H22h.1zM19.1 61zM23.2 56.2c.1 0 .1 0 .1-.1 0 .1 0 .1-.1.1zM24.6 54.5l-.1.1.1-.1zM44.2 16h.3c-.2-.1-.2-.4-.3 0zM1.4 76.7v-.1.1c-.1 0 0 0 0 0zM21.6 54.8l.3-.2c-.2 0-.3.1-.3.2zM37.5 30.5c0-.1 0 0 0 0zM22.5 53.7h.3v-.1l-.3.1zM44.5 16z"/><path d="M44.8 13.6c-.1.3.3.3.4.4-.1.4-.3.1-.6.1 0 .3.2.6.1.7-.1 0-.1 0-.1-.1.2.4-.3.7-.1 1.2h-.1c.2 0 .4.1.5.2-.1.1.1.4-.1.3 0-.1 0-.1-.1-.2v.2c-.4 0 0-.2-.3-.3 0 .3.1.8-.1 1-.3-.1.1-.6-.3-.4l.3-.3c-.6 0 .1-.2-.5-.2-.3.4-.1.6-.3 1 .1.2.3.1.4.3 0 .8-1 .2-.8.8.2.2.5.4.2.7l-.3-.4c-.2.4.4.5 0 .8-.1-.1 0-.4 0-.3-.4.2.1.3 0 .5l-.3-.1c-.2.5-.2 1.1-.3 1.6-.2-.1-.2-.2-.4-.1-.1.7-.6 1.3-1.1 1.9l.2.4c0 .1-.2 0-.2 0-.2.2.2.1.2.3 0 .1-.2.1-.3 0 0 .5 0 1.4-.5 1.7v-.1c-.3.3.4.6 0 .8v-.1c-.5.7-.6 1.6-1.3 2 .3.3-.5.6 0 1-.5.3-.5.1-1 .6-.1.1.2.4.2.6l-.3-.1.2.4h-.4v.2c.1-.1.2-.1.3 0 0 .3-.5.6-.7.5l-.3.6c-.1-.1-.1-.2-.1-.3.1.5-.3-.1-.2.4.1 0 .2.1.2.1-.2.1-.4.4-.5.8l-.2-.2c-.3.5-.4 1.1-.7 1.6.2-.2.5.1.4.2l-.3-.1c.1.2.2-.1.3.2-.1.2-.4 0-.4-.2v.3c-.1 0-.1-.1-.2-.2.1.2-.5.3-.3.6h-.1c-.3.5-.3.8-.6 1.3.2.1.1.3.2.5-.3.3-.7.5-.9.9 0 .3.2.2.2.4-.2-.1-.4.3-.5 0-.2.5-.3.6-.5 1.3.1 0 .2-.1.3 0 0 .1-.2.2-.3.1-.1.9-1.6 1.1-1.4 1.9l-.1.7c-.2.2-.1-.3-.3-.2 0 .8-.6.9-.7 1.5-.9 0-.8 1.3-1.5 1.5l.2.1c.1.2-.2.1-.3.2.1.1.2 0 .3.1-.5 1.2-1.7 2-2.6 3-.3.4.6.8-.1 1L26 49c-.2 1-1.2 1.6-1.5 2.5 0-.1-.1-.2 0-.2-.3 0-.5.6-.3.7-.2.2-.3 0-.4 0-.2.1-.1.6-.3.5v-.1c0 .2-.4.5-.1.5-.3.2-.3.6-.6.7.1.3-.5.4-.2.7-.3-.3-.7.2-.7.6-.1-.1-.2.1-.3-.1-.2.2-.2.4 0 .6-.7 0-.3 1-1 .8-.3.7-.6 1.4-1 2-.3-.3.5-.6.1-.9-.3.6-.3 1.2-.8 1.6-.2.1-.1-.2-.1-.3-.3.6-.9.9-1.1 1.5v-.2c-.1.1-.2.2-.1.3v-.1c.3.1.2.8.3.9-.3-.5-.5.3-.8-.4 0 .1 0 .2.1.3-.1.1-.2 0-.2-.2-.2.4.1.4-.2.7-.1-.1-.1-.2-.1-.3 0 .3 0 .5-.2.7 0-.1-.1-.1 0-.1-.3.4-.3 1-.8 1.3-.2-.4-.2.1-.5-.2l-.1.3h.2c-.2.2-.2.6-.4.7v-.3l-.3.4.3-.1c-.1.3.4.3 0 .5 0-.1-.2.2-.5.2 0 .2 0 .4-.2.5-.1 0-.3-.3-.3-.3.1.3-.4.5-.3.9 0-.1-.2-.2-.2-.2l.1.3c-.1 0-.2 0-.3-.1-.3.3.4.2 0 .4v-.1c-.4.3-.5.8-.9 1-.4-.2.2-.3-.1-.4-.4.5-.6 1.2-1.1 1.6l.1-.1c.3.4-.5.1-.5.5 0-.1-.1-.3-.1-.2-.3.2-.5.7-.8 1.2v-.2c-.3.1-.5.4-.7.5 0 .2-.1.2.1.3C7.7 70 8 71.4 7 71.4c.1-.1.1-.2 0-.2l-.3.5c.2.1.2 0 .4.1 0 .2 0 .3-.1.5 0-.3-.3-.3-.5-.3.1 0 .1.1.1.2-.5-.1.3.4-.2.5l-.1-.1c-.1.2-.1.4-.2.5-.2-.1 0-.2-.1-.4-.2.2 0 .7-.3.7 0-.1.1-.2.2-.4-.4-.1-.4 0-.5.1l-.4.1h.1c.3.7-.4.5-.3 1.1 0-.6-.1-.2-.3-.5-.1 0-.3.1-.3 0 0 .3-.4.1-.3.5-.1-.1-.2.1-.3-.1-.1.2.2.1.2.2-.1.5-.9.3-1 1.1-.2.5-.1.8-.3 1.2-.2 0-.2-.3-.2-.3-.3.1-.4.2-.5.5 0-.1-.1-.1-.2-.1-.1.1.2.3-.1.4 0-.1-.1-.3-.1-.4-.2.2-.3.4-.4.7-.2-.1-.1-.3-.1-.4-.1.2-.4.6-.2.8h.2c-.1.1-.2-.1-.2-.2 0-.3.3-.1.4-.1l-.1.1c.5.3.4-.5.7-.7l.2.4v-.5c.1 0 .3.2.2.3.3 0 0-.2.4-.2v.1l.1-.2c0 .1.2.2.1.2.5-.1.3-.7.6-.6.3-.5-.2-.3-.1-.8l.7.3-.2-.3c.1 0 .2-.1.2 0 0-.3-.1-.1-.2-.3.4 0 .5-.6.9-.3-.1-.2-.3.1-.2-.3.4.3.2-.3.5-.3.1.2-.1.3.2.3-.2-.4.4-.3.5-.5-.2-.3.2-.4.4-.8.1.1.6-.3 1-.5v.1c-.2-.3.1-.5.2-.7.1.2.2.3.1.4l.2-.2c0-.1 0-.2.1-.4l.1.2c.2-.2.2-.7.7-.8-.2-.2-.7-.3-.5-.7.1.1.3.2.2.4 0 0 0-.2.1-.2v.3c.2-.1-.1-.2.1-.3.1.1.2 0 .3.1 0 0-.2 0-.1.1.1-.1.4-.2.5-.1-.1-.1-.2-.2-.1-.3.2-.2.2.1.5 0 0-.2.2-.2 0-.4.1-.1.2 0 .3.1 0-.2.5-.6.2-.7.2-.6.9-.7 1.2-1.2l.1.1c.1-.3.5-.6.5-.9.1-.1.3 0 .3.1.1-.2.1-.3.4-.5-.1.3.2 0-.1.3.3-.2.4-.1.5-.5.1.3.4.1.5-.1H13l.3-.3.2.3c.8-.2.3-1.3 1.2-1.2 0-.3-.4.1-.5-.2.2-.2.8-.1.9-.2.4-.2-.1-.6.3-.8-.1 0-.4-.2-.2-.5.2-.2.6.1.6.3 0 .1-.1.1-.1 0 0 .1-.1.2.1.2l-.1-.1c.2 0 .5-.3.5-.1.1-.2-.1-.2-.2-.1.4-.2.4-.4.8-.6-.1 0-.2-.1-.2-.1.5-.3 0-.3.2-.7.3 0 .3.4.4 0 .3-.1.3.2.3.3.1-.4.6-.4.7-.5l-.2.3c0-.1.1-.2.2-.3l-.2-.1c.1-.1.2-.1.2-.1 0-.2-.3-.2-.4-.5.2 0 .2-.4.5-.3-.4.3.3.2 0 .5 0-.1.1-.2.2-.2v.1c.5-.1-.1-.4.2-.7.1.2.3.1.3.1-.1.1-.3-.1-.3-.4.3-.1.1-.3.3-.4l-.2.1c-.1-.2 0-.3.1-.5.1.1-.1.2 0 .2-.1-.4.6-.2.7-.6.2 0 .3.2.4.2.1-.4.4-.1.6-.5-.3-.1-.2 0-.2-.4l-.3.6v-.5c0 .2-.1.5-.2.5 0-.3 0-.2-.2-.3.4 0 .2-.5.6-.6l.4.4c.5-.2.3-.8.8-1.1l-.2.1c-.1-.2.2-.3.3-.5.1.1.3.1.4.1-.1-.1.3-.3 0-.6h.4c.4-.3-.1-.8.3-1.1.1.2.3.2.2.5.1-.1.2-.2.1-.3.2 0 .1-.5.3-.5 0-.1-.2-.3-.1-.4l.1.1c-.1-.1.1-.3-.2-.3.8 0 .8-1 1.4-1 .2-.3.3-.7.5-.9 0 .1.1.1 0 .1.4-.2-.3-.5.2-.8.4 0 0 .3.2.3.6.3.3-.5.8-.5v.1c.3-.1.2-.6.4-.9l.1.1c-.1-.4.1-.9.3-1.3.1.2 0 .2.3.3.1-.2-.4-.2-.2-.5.2 0 .4-.1.7 0l-.2.3c.4.1.2-.3.4-.4l.1.1c.2-.4-.1-.7.3-1.1h-.1c-.1-.5.3-.1.3-.5l.4.2c0-.2.1-.8.2-1.1.1.3 0 .7 0 1 .1-.2.4-.5.3-.7 0 .1 0 .2-.1.2-.1-.4-.1-.7.2-1 .6.5.7-.7 1.3-.6.1-.7.8-1 1.2-1.7-.7-.1.1-.2-.4-.5.1-.2.1-.2.2-.2l.6-.3c.2 0 0 .2.1.3.3-.3.3 0 .6-.1-.2-.1-.2-.3 0-.4h-.6c0-.6.7-.1.7-.8l.1.3c.1-.3.6-.9.3-1.4.1 0 .3 0 .2.2.4-.6.3-1.6.9-1.9l.1.1c0-.1-.1-.3.1-.4l.1.1c0-.1 0-.4.1-.5l.1.2c.5-.5.1-1.1.3-1.6.4.2.8-.2 1-.4.4-.7.3-1.3.5-2 .6-.2.9-1.2 1.5-1.8-.1.1-.3-.2-.3-.3.2-.1-.1-.6.3-.3.4.1.5-.3.6-.5l-.4-.3c1-.3.6-1.8 1.4-1.8 0-.2.1-.4 0-.6l.2.1c.3-.4.4-.6.6-1.1l.1.2c.2-.3-.6-.7-.4-1l.4.1c.2-.5.8-.9.7-1.6.1 0 .2.1.1.2.1-.2.7-.8.1-1 .3.2.3-.5.3-.9l.2.2c-.2-.4-.3-.4-.2-.8.1-.1.2 0 .1.1.3-.2-.1-.3.1-.6l.1.2c.1-.3 0-.3-.1-.5 0-.2.3-.5.5-.4 0-.2-.1-.5 0-.6.1 0 .1.1.1.1.4-.4 0-.8.4-1h.2l-.3.6c.2.1.4-.2.6.2-.1-.3-.3-.9 0-1.1h.1c.1-.1.1-.1 0-.2l.2-.2c.2.1.3-.3.3-.4-.3-.1-.1-.3-.4-.2v.2c0 .1-.1.2-.1.4-.1-.2-.1-.3.1-.4-.1-.1-.3-.3-.3-.4.4 0 .8-.3 1.1-.3 0-.5.4-1.1 0-1.6 0-.2.2-.1.3-.1v.2c0-.3.3-.8 0-1 .3-.3.2.3.4-.1l.1.1c.9-.6-.3-1.8.8-2.4-.1 0-.1.1-.2.1.8-1 .7-2.4 1.6-3.2.2-.3 0-.4-.1-.6h.3l-.2-.5c0-.6 1-.5.8-1.3h-.2c.1-.2.2-.7.4-.6 0 0-.2-.1 0-.2v.2-.6c.3-.3.6.3.8-.3 0-.2-.2-.8-.3-.7 0 .1-.2.2-.3.1v-.2c-.4-.2-.8-.5-1.3-.2l.1.4h-.3l.1-.3c-.3.1-.1.3-.1.4h-.3l.3.5c-.2 0-.3-.3-.5-.1.1.2.4 0 .5.3-.3.1-.4 0-.3.2-.1 0-.2-.1-.2-.2.1.2-.1.5.1.6-.3.1-.2.6-.6.4.1.1.2.4.2.6-.4-.5-.3.6-.8.3.4.4-.1.8 0 1.3 0 0-.1-.1 0-.1-.1.2-.3.2-.4.3.4.2.3.5.5.8-.5.1-.4-.3-.7-.4.3.1.1.6.4.6-.3.1-.2.1-.5.1.4.2 0 .2.2.5-.3.2-.5-.1-.4.3-.4.1-.4-.2-.4-.2zm-2.4 7.5v-.2.2zm-.3.6c0-.1.1-.2.1-.3.1 0 .2.1.1.1.1.1 0 .2-.2.2zm2.4-.4c0 .1-.1.1-.1.1 0-.1 0-.1.1-.1l-.1-.1s.1 0 .1.1zM44.2 20.9zM9.8 70.1zM37.8 29.8v-.1zM6.5 72z"/><path d="M5.3 73.1l-.2.1c.1-.1.2-.1.2-.1zM4.4 73.8s0 .1.1.1l-.1-.1zM17.6 59.8c.1-.1 0-.1 0 0zM14.2 64.5v-.2c-.1 0-.1 0 0 .2zM21.5 54.8h.1zM14.4 64c-.1 0-.2.1-.2.2.1 0 .2-.1.2-.2zM.5 77.3c-.1.1-.1.1 0 0zM.5 77.4c0 .1 0 0 0 0zM.4 77.6l.1-.1c-.1 0-.2 0-.1.1zM1.7 76.3zM2.1 76c-.1 0-.4 0-.5.2v.1c0-.2.5-.1.5-.3zM4.4 75.5l-.4.2c.1 0 .3.1.2.2.6-.1-.2-.1.2-.4zM5.4 74.7c-.1.2.1.1.1.2.1-.2.1-.2-.1-.2zM12 68.2l.2.2c.1-.1-.1 0-.2-.2zM12.3 66.1h-.2l.1.2zM14.3 66.6v.1l.1-.3zM24.6 55l-.3-.2c0 .1.2.4.3.2zM28.4 49.4c.2 0 .4-.1.3-.2-.1.1-.3.1-.3.2zM39.2 32.5v.2l.1-.3z"/><g><path d="M55.4 19.2c.1 0 .3-.1.2-.2l-.3.1.1.1zM55.8 18.6c-.2 0-.5.1-.7.2.3-.1.2 0 .6-.1.1 0-.1.1-.2.2.1 0 0 .1.2 0 .2-.2.2-.3-.1-.3h.2zM54.6 13.4zM54.2 10.1s.1 0 0 0c.1 0 0 0 0 0zM54.5 9.5zM54.6 13.4l.1-.1c-.1 0-.1 0-.1.1zM54.7 18.2h0zM55.2 14.7h.1-.1zM55.6 15.8s-.3 0-.4.1h.2c0-.1.1-.1.2-.1zM55.7 17.6zM55.1 14c0-.1 0-.1 0 0 0-.1 0-.1 0 0zM37.7 11.2zM35.9 10.4h.1l-.1-.2zM54.7 8.4zM50.3-1.2c.1.2-.3.5-.1.7 0-.1.3-.6.1-.7zM54.8 18.2c-.1 0-.1 0 0 0-.1 0-.1 0 0 0zM50.2-.5zM54 6s-.1 0-.1.1c0 0 .1 0 .1-.1zM54 7.9zM53.4 5.2s.1-.1 0 0c0-.1 0-.1 0 0 0-.1.1-.1 0 0zM53.2 4.2s-.1 0 0 0zM40.4 9.5l-.2-.2c.2.2.1.3.2.2zM54.9 18.2h-.1.1c-.1 0 0 0 0 0zM51.3 5.7v-.2.2zM45.7 4.8c0 .1 0 0 0 0zM51.1 5.1c.1 0 .2-.1.2-.1h-.1l-.1.1zM40.2 9.3z"/><path d="M39.7 10.5c.1-.1-.1-.3-.2-.5.1-.2.2.2.4.3 0-.1-.1-.5 0-.5l.1.1c-.1-.3.3-.2.2-.6l.1.1c-.2-.2-.3-.4-.4-.5.1 0 0-.3.1-.1V9v-.1c.3.2 0 .2.1.4.1-.2 0-.5.2-.5.3.2-.1.2.2.4h-.2c.4.4-.1 0 .3.4.2 0 .1-.3.3-.3-.1-.2-.2-.2-.3-.4 0-.5.7.5.6 0-.1-.2-.3-.6-.1-.5l.2.3c.2-.1-.2-.5.1-.4.1.1 0 .2 0 .2.3.1-.1-.2 0-.3l.2.2c.4-.1.4-.5.5-.7.1.1.1.2.2.2.1-.3.5-.4.9-.5l-.1-.3.1.1c.2 0-.1-.1-.2-.3 0-.1.2.1.2.2 0-.3.1-.8.4-.7v.1c.2 0-.3-.6 0-.5v.1c.3-.2.4-.6.9-.5-.3-.3.4-.1 0-.5.3.1.4.2.7.1.1 0-.2-.3-.1-.5l.2.2-.1-.3.5.4v-.1s-.1-.1-.2-.1c0-.2.4-.1.5 0v-.4c.1.1.1.2.1.2-.1-.3.2.2.2-.1-.1 0-.1-.1-.2-.2.2.1.3 0 .4-.2l.1.2c.2-.1.3-.4.5-.6-.1 0-.4-.3-.3-.4l.2.3c-.1-.2-.1 0-.2-.3.1 0 .3.2.3.4v-.2l.2.2c-.1-.2.4.1.2-.2l.1.1c.2-.2.2-.3.4-.5-.2-.2-.1-.2-.2-.4.2 0 .4 0 .6-.1 0-.2-.1-.2-.2-.4.2.2.3.1.3.3.2-.2.2-.2.3-.5l-.2-.2c0-.1.2 0 .2.1 0-.5 1.1.2.8-.2v-.3c.1 0 0 .2.1.4 0-.2 0-.2.1-.2 0 0 0 .1.1-.1v.4s.1-.1 0 .2l.1-.3c.1-.2 0 .1-.1.2.1-.1.1-.2.2-.3.1 0 .1.1 0 .2L50 2V2.6c0 .2.9-.3.6.1l-.3.1c.5.2.3.7.7 1h-.2c-.2.2.1.3.3.2 0 .1-.2.1-.2.1-.1.1.4.1.1.2h-.1c.1 0 0 .2.3.1-.1.2.2.2.1.4.3 0-.1.3.3.2-.4.1-.3.3-.1.4-.1 0-.1.1-.3.1 0 .1.1.2.4.1-.5.3.5.3-.1.6.3.3.5.5.7.8-.4.1-.1-.3-.6-.2.2.2.6.3.6.6 0 .1-.2 0-.3 0 .2.2.1.5.3.7h-.1s0 .1.2.1h-.1c.3-.1.6.1.8.1-.6 0-.1.3-.9.3h.3c0 .1-.1.1-.3.1.1.2.3.1.4.2h-.3c.2 0 .4.1.3.2h-.1c.1.2.6.3.4.6-.4 0-.1.1-.5.2l.1.1.2-.1c0 .1.3.2.2.3l-.2-.1.1.2.1-.1c.2.1.5-.1.4.1 0 0 0 .1-.2.2.1 0 .3.1.2.2-.1 0-.4 0-.5.1.3 0 .1.3.5.3h-.3.3c-.1.1-.1.1-.3.1 0 .2.5-.1.3.1h-.1c-.1.2.2.4.1.6-.4.1-.1-.1-.4 0 .1.3.5.5.5.7v-.1c.5-.1-.2.2 0 .3h-.2c-.1.2.2.3.4.6h-.1c-.1.1 0 .3 0 .4.1 0 .1.1.3 0-.7.5.5.6 0 1 0 0-.1-.1-.1 0l.2.2c.2-.1.1-.1.3-.2.1 0 .3 0 .3.1-.2-.1-.4.1-.5.2.1 0 .1 0 .2-.1-.4.2.5-.1.2.2h-.1c.1.1.2.1.2.2-.2.1-.1 0-.4 0 0 .1.5.1.3.2-.1 0-.1-.1-.2-.1-.3.2-.2.2-.2.3l-.1.2.1-.1c.7-.1.2.2.7.3-.5 0-.2.1-.5.1-.1.1-.1.2-.2.2.3 0-.1.2.2.2-.1 0 0 .1-.2.2.1.1.2-.1.3-.1.4 0-.2.5.3.6.3.1.6 0 .8.2-.1.1-.3.1-.3.1-.1.2 0 .2.1.3-.1 0-.1.1-.2.1.1.1.3-.1.3.1-.1 0-.3.1-.4.1.1.1.3.1.5.1-.1.1-.3.1-.4.1.1.1.3.2.5.1l.1-.1s-.2.1-.3.1c-.2 0 0-.2.1-.2h.1c.5-.3-.2-.2-.2-.4l.4-.1h-.4c.1-.1.3-.2.4-.1.1-.2-.2 0 0-.2h.1-.1c.1 0 .3-.1.2-.1.2-.3-.4-.1-.1-.3-.2-.2-.3.1-.7.1l.7-.4-.3.1s0-.1.1-.1c-.2 0-.1.1-.3.1.2-.2-.2-.3.2-.5-.2 0-.1.2-.3.1.5-.2-.1-.1.1-.3.3-.1.2.1.4-.1-.5.1 0-.2-.1-.3-.3.1-.2-.1-.4-.3.1 0 .1-.3.2-.5h.1c-.4.1-.3-.1-.4-.2.2-.1.3-.1.4 0v-.1c-.1 0-.2 0-.2-.1h.3c0-.1-.4-.2-.2-.4-.3 0-.7.3-.9.2.1 0 .4-.1.4-.1s-.1 0-.1-.1h.2c.1-.1-.2 0-.2-.1.2 0 .1-.1.3-.1 0 0-.1.1 0 .1 0-.1.1-.2.3-.3-.1 0-.3.1-.3 0s.2-.1.3-.2c-.1 0 0-.1-.3-.1 0 0 .1-.1.2-.1-.1 0-.1-.3-.4-.2-.3-.2.1-.5-.1-.7h.1c-.1-.1-.1-.3-.3-.3 0 0 .2-.1.3-.1-.1-.1-.2-.1-.1-.3.2.1.1-.1.1.1.1-.1.2-.2-.1-.3.3 0 .3-.2.2-.2l-.2.1v-.2h.3c.4-.3-.8-.4-.1-.7-.2 0-.1.2-.4.2 0-.1.5-.3.5-.4.2-.2-.5-.1-.4-.3-.1 0-.4.1-.6 0 0-.1.5-.2.6-.2l-.1.1s.1.1.2 0h-.1c.1-.1.1-.3.3-.2-.1-.1-.2 0-.2.1.1-.2 0-.3.1-.4-.1 0-.2.1-.2.1.1-.3-.2-.1-.3-.2.2-.1.4 0 .3-.2.1-.1.3-.1.4 0-.3-.1.1-.3.1-.4l.1.1c-.1 0-.1-.1-.1-.1l-.2.1c0-.1 0-.1.1-.1-.2 0-.4.1-.6 0 .1-.1-.2-.2.1-.2-.1.2.3-.1.4.1v-.1h.1c.2-.2-.4 0-.4-.2.2 0 .3-.1.3-.1 0 .1-.3.1-.4 0-.3-.5-.5-.4-.5-.5V8c-.2 0-.2-.1-.2-.1.1 0 .1.1.2 0-.3 0 .3-.3 0-.4.1-.1.3-.1.4-.1-.3-.1.2-.2 0-.3-.2.1-.2.1-.4 0l.2.2-.4-.1c0 .1.2.1.1.2h-.3c.3-.2-.2-.2 0-.4l.6-.1c.2-.2-.4-.3-.3-.6l-.1.1c-.2 0-.1-.1-.2-.2.2 0 .3-.1.4-.2-.1 0 0-.2-.4-.1l.2-.2c.1-.2-.6-.1-.6-.3.2 0 .3-.1.5 0 0-.1 0-.1-.1-.1.1-.1-.3-.1-.1-.2h-.3.1c-.1 0-.2-.1-.4 0 .5-.4-.2-.5.3-.8-.2-.2-.3-.3-.3-.4h.1c.1-.2-.6.1-.4-.2.3-.2.2.1.3 0 .6-.2-.2-.2.2-.5.1-.2-.4-.2-.4-.4h.1c-.4 0-.5-.2-.7-.3.3 0 .2 0 .4-.1-.1-.1-.4.2-.5.1l.4-.4.1.1c.3-.2-.1-.2 0-.3l.1-.1c-.1-.2-.5 0-.6-.3l-.1.1c-.4 0 .2-.2-.2-.2l.3-.2c-.1 0-.5-.1-.6-.2.3 0 .6.2.8.2 0 0-.1-.1-.1-.2-.1 0-.2-.1-.3 0 .1 0 .2 0 .1.1-.3 0-.5 0-.6-.2.6-.5-.1-.6.2-1.3-.2-.1-.3-.3-.4-.6 0-.1-.1-.3-.1-.4 0-.1-.1 0-.1 0-.1 0-.1.1-.2.1 0 .7-.1.1-.3.8l-.1.1-.3-.3c-.1-.2.1-.2.1-.4-.3.1-.1-.2-.3-.3 0 .2-.1.4-.3.4l.2.2c-.3.5-.4-.4-.7.1l.1-.3c-.2.2-.8.4-.7.9-.1 0-.2-.2-.1-.2-.3.1-.3.8-.7.7l-.1-.1c0 .1.1.3-.1.2 0-.1-.1-.1-.1-.1 0 .1 0 .3-.1.3V.5c-.4 0-.2.6-.3.8-.3-.4-.5-.3-.7-.3V.9c-.3.2-.3.7-.4 1-.5-.2-.6.3-1.1.3.1 0 .2.3.2.3-.1 0 .1.4-.2.1-.3-.3-.3-.1-.4 0l.5.4c-.8-.4-.4.8-1 .4v.4l-.2-.2c-.2.1-.3.1-.4.4l-.2-.4c-.1.1.4.7.4.8l-.3-.3c-.2.2-.6.1-.5.5 0 0-.1-.1-.1-.2-.1.1-.5.1-.1.5-.3-.3-.2.1-.2.4l-.2-.2c.2.3.2.4.2.6-.1 0-.2-.1-.1-.1-.2 0 .1.3-.1.2l-.1-.2c-.1.1 0 .1.1.3 0 .1-.2.1-.4-.1.1.1.2.3.1.3-.1-.1-.1-.1-.1-.2-.3 0 0 .5-.3.3l-.1-.1.2-.2c-.2.1-.4.2-.5-.2.1.2.2.7 0 .6l-.1-.1v.1h-.1c-.1-.2-.2 0-.2 0 .2.2.1.2.3.4v-.1l.1-.1c.1.1.1.3-.1.2.1.2.2.4.2.5-.3-.2-.6-.3-.8-.5-.1.3-.3.4-.1.9 0 .1-.1-.1-.2-.1v-.2c0 .2-.2.2 0 .6-.2 0-.1-.3-.3-.2v-.1c-.6-.2 0 1.1-.8.8 0 0 .1 0 .1.1-.6 0-.7.8-1.4.6-.2 0-.1.2-.1.4l-.2-.3v.4c-.1.3-.6-.5-.7 0l.1.2c-.1 0-.2.2-.3 0v.1l-.1-.1.1.2c-.2 0-.2-.6-.4-.5-.1.1-.1.5 0 .6l.2.2-.1.1c.1.4.2.9.5 1.2l.1-.3.1.2-.1.1c.1.2.1 0 .1-.2.1.1.1.2.1.2v-.5c.1.2.1.4.2.4 0-.2-.2-.4-.1-.5.1.2.2.3.2.1.1.1.1.2 0 .2 0-.2.2-.1.1-.4.2.2.2-.2.4.2 0-.1 0-.4.1-.4.1.5.3-.1.5.4-.1-.5.3-.4.3-.7v.1c.1 0 .2.1.3.1-.2-.4-.1-.5-.1-.8.3.3.2.4.4.7-.2-.3 0-.4-.1-.6l.3.3c-.2-.4 0-.1 0-.4.2.1.3.4.3.2.1.3.1.5.1.5zm2.4-2.8c-.1 0-.1 0 0 0-.1 0-.1 0 0 0zm.2-.2s-.1 0-.1.1c-.1-.1-.1-.1-.1-.2 0 0 .1 0 .2.1zm-1.8-1.1c.1-.1.1 0 0 0 .1 0 .1 0 0 0l.1.1s0-.1-.1-.1z"/><path d="M40.7 6.7c.1.1.1.1 0 0zM54.6 13.4zM45.5 5.1zM54 15.2zM54.1 15.9v0zM54.2 16.5h.1-.1zM52.1 8.3c0-.1 0-.1 0 0 0-.1 0-.1 0 0zM53.2 10.6c-.1 0-.1 0-.1-.1-.1.1-.1.1.1.1zM51.3 5.7zM53 10.4v.1c.1 0 .1-.1 0-.1zM54.9 18.7s.1 0 0 0zM55 18.7zM55.1 18.8c-.1-.1-.1 0 0 0zM54.7 18zM54.6 17.8c0 .1-.2.2-.1.3h.1c-.1-.1.2-.3 0-.3zM55.5 16.5v.2c.1-.1.2-.2.3-.1.2-.3-.3.1-.3-.1zM55.5 16c.1.1.1 0 .2-.1-.1 0-.2 0-.2.1zM54.6 12.2h.3c-.1-.1-.2 0-.3 0zM53.1 11.7l-.1.1h.2zM54.8 10.9l.1.1-.1-.1zM53.5 4.3l-.3.1c0 .1.4 0 .3-.1zM52.2 1.6c.1-.1.2-.2 0-.2 0 .1-.1.2 0 .2zM44.4 2.8v-.2l-.1.2z"/></g></g></svg>
